<svg width="32" height="32" viewBox="0 0 32 32" fill="none" xmlns="http://www.w3.org/2000/svg">
    <!-- Background circle -->
    <circle cx="16" cy="16" r="16" fill="#0066cc"/>

    <!-- Excel-like grid -->
    <rect x="6" y="6" width="20" height="20" rx="2" fill="white"/>

    <!-- Grid lines -->
    <line x1="6" y1="10" x2="26" y2="10" stroke="#0066cc" stroke-width="0.5"/>
    <line x1="6" y1="14" x2="26" y2="14" stroke="#e9ecef" stroke-width="0.5"/>
    <line x1="6" y1="18" x2="26" y2="18" stroke="#e9ecef" stroke-width="0.5"/>
    <line x1="6" y1="22" x2="26" y2="22" stroke="#e9ecef" stroke-width="0.5"/>

    <line x1="10" y1="6" x2="10" y2="26" stroke="#0066cc" stroke-width="0.5"/>
    <line x1="14" y1="6" x2="14" y2="26" stroke="#e9ecef" stroke-width="0.5"/>
    <line x1="18" y1="6" x2="18" y2="26" stroke="#e9ecef" stroke-width="0.5"/>
    <line x1="22" y1="6" x2="22" y2="26" stroke="#e9ecef" stroke-width="0.5"/>

    <!-- Search/view icon -->
    <circle cx="19" cy="19" r="3" fill="none" stroke="#0066cc" stroke-width="1.5"/>
    <line x1="21.5" y1="21.5" x2="24" y2="24" stroke="#0066cc" stroke-width="1.5" stroke-linecap="round"/>

    <!-- Data points -->
    <circle cx="8" cy="12" r="0.5" fill="#28a745"/>
    <circle cx="12" cy="12" r="0.5" fill="#28a745"/>
    <circle cx="16" cy="12" r="0.5" fill="#ffc107"/>

    <circle cx="8" cy="16" r="0.5" fill="#28a745"/>
    <circle cx="12" cy="16" r="0.5" fill="#28a745"/>
    <circle cx="16" cy="16" r="0.5" fill="#28a745"/>
</svg>